<?xml version="1.0" encoding="iso-8859-1"?>
<!-- Generator: Adobe Illustrator 19.0.0, SVG Export Plug-In . SVG Version: 6.00 Build 0)  -->
<svg version="1.1" id="Capa_1" xmlns="http://www.w3.org/2000/svg" xmlns:xlink="http://www.w3.org/1999/xlink" x="0px" y="0px"
	 viewBox="0 0 512 512" style="enable-background:new 0 0 512 512;" xml:space="preserve">
<g>
	<g>
		<path d="M442,3.5c-26.191,0-47.5,21.309-47.5,47.5s21.309,47.5,47.5,47.5c26.191,0,47.5-21.309,47.5-47.5S468.191,3.5,442,3.5z
			 M442,83.5c-17.921,0-32.5-14.58-32.5-32.5s14.579-32.5,32.5-32.5c17.921,0,32.5,14.58,32.5,32.5S459.921,83.5,442,83.5z"/>
	</g>
</g>
<g>
	<g>
		<path d="M381,97.5h-55c-15.163,0-27.5,12.336-27.5,27.5c0,6.893-5.607,12.5-12.5,12.5h-16c-15.163,0-27.5,12.336-27.5,27.5
			s12.337,27.5,27.5,27.5h61c15.163,0,27.5-12.336,27.5-27.5c0-6.893,5.607-12.5,12.5-12.5h10c15.163,0,27.5-12.336,27.5-27.5
			S396.163,97.5,381,97.5z M381,137.5h-10c-15.163,0-27.5,12.336-27.5,27.5c0,6.893-5.607,12.5-12.5,12.5h-61
			c-6.893,0-12.5-5.607-12.5-12.5s5.607-12.5,12.5-12.5h16c15.163,0,27.5-12.336,27.5-27.5c0-6.893,5.607-12.5,12.5-12.5h55
			c6.893,0,12.5,5.607,12.5,12.5S387.893,137.5,381,137.5z"/>
	</g>
</g>
<g>
	<g>
		<path d="M286,20.5H179c-15.163,0-27.5,12.336-27.5,27.5c0,6.893-5.607,12.5-12.5,12.5h-36c-15.163,0-27.5,12.336-27.5,27.5
			c0,6.893-5.607,12.5-12.5,12.5H31c-15.163,0-27.5,12.336-27.5,27.5s12.337,27.5,27.5,27.5h99c15.163,0,27.5-12.336,27.5-27.5
			c0-6.893,5.607-12.5,12.5-12.5h25c15.163,0,27.5-12.336,27.5-27.5c0-6.893,5.607-12.5,12.5-12.5h51
			c15.163,0,27.5-12.336,27.5-27.5S301.163,20.5,286,20.5z M286,60.5h-51c-15.163,0-27.5,12.336-27.5,27.5
			c0,6.893-5.607,12.5-12.5,12.5h-25c-15.163,0-27.5,12.336-27.5,27.5c0,6.893-5.607,12.5-12.5,12.5H31
			c-6.893,0-12.5-5.607-12.5-12.5s5.607-12.5,12.5-12.5h32c15.163,0,27.5-12.336,27.5-27.5c0-6.893,5.607-12.5,12.5-12.5h36
			c15.163,0,27.5-12.336,27.5-27.5c0-6.893,5.607-12.5,12.5-12.5h107c6.893,0,12.5,5.607,12.5,12.5S292.893,60.5,286,60.5z"/>
	</g>
</g>
<g>
	<g>
		<path d="M495.5,493.5v-50c0-16.542-13.458-30-30-30c-4.265,0-8.323,0.901-12,2.512v-37.978c30.937-3.719,55-30.111,55-62.034v-80
			c0-34.462-28.037-62.5-62.5-62.5c-27.559,0-50.993,17.938-59.282,42.745C360.472,224.204,342.5,248.167,342.5,276v40
			c0,31.923,24.063,58.315,55,62.034v45.098c-5.483-5.919-13.315-9.632-22-9.632c-8.954,0-16.999,3.948-22.5,10.189
			c-5.501-6.241-13.546-10.189-22.5-10.189c-8.954,0-16.999,3.948-22.5,10.189c-5.501-6.241-13.546-10.189-22.5-10.189
			c-5.462,0-10.584,1.475-15,4.036v-48.43l22.5,22.5l31.819-31.82L163,197.967l-64.5,64.5V236.5h10v-45h-75v45h10v80.967
			l-42.319,42.32L33,391.606l22.5-22.5v48.43c-4.416-2.561-9.538-4.036-15-4.036c-16.542,0-30,13.458-30,30v50H0v15h512v-15H495.5z
			 M55.5,493.5h-30v-50c0-8.271,6.729-15,15-15s15,6.729,15,15V493.5z M48.5,206.5h45v15h-45V206.5z M83.5,236.5v40.967l-25,25
			V236.5H83.5z M33,370.394l-10.606-10.607L163,219.18l140.606,140.606L293,370.394l-130-130L33,370.394z M195.5,493.5h-65v-105h65
			V493.5z M255.5,493.5h-45v-120h-95v120h-45V354.106l92.5-92.5l92.5,92.5V493.5z M300.5,493.5h-30v-50c0-8.271,6.729-15,15-15
			s15,6.729,15,15V493.5z M345.5,493.5h-30v-50c0-8.271,6.729-15,15-15s15,6.729,15,15V493.5z M390.5,493.5h-30v-50
			c0-8.271,6.729-15,15-15s15,6.729,15,15V493.5z M405,363.5c-26.191,0-47.5-21.309-47.5-47.5v-40
			c0-18.366,10.296-34.513,26.061-42.409c-0.031,0.801-0.061,1.601-0.061,2.409v80c0,18.99,8.525,36.018,21.936,47.49
			C405.29,363.491,405.146,363.5,405,363.5z M435.5,493.5h-30v-50c0-8.271,6.729-15,15-15s15,6.729,15,15V493.5z M438.5,419.516
			c-5.018-3.775-11.252-6.016-18-6.016c-2.771,0-5.451,0.385-8,1.092v-36.557c4.432-0.533,8.787-1.524,13.02-2.999
			c4.147,1.443,8.491,2.458,12.98,2.998V419.516z M438.501,362.902c-22.64-3.607-40-23.263-40-46.902v-80H398.5
			c0-26.191,21.309-47.5,47.5-47.5c26.191,0,47.5,21.309,47.5,47.5v80c0,23.639-17.36,43.295-40,46.902v-22.795l23.804-23.804
			l-10.607-10.606L453.5,318.893V273h-15v22.893l-9.196-9.196l-10.607,10.606l19.804,19.804V362.902z M480.5,493.5h-30v-50
			c0-8.271,6.729-15,15-15s15,6.729,15,15V493.5z"/>
	</g>
</g>
<g>
	<g>
		<rect x="246" y="227.5" width="15" height="15"/>
	</g>
</g>
<g>
	<g>
		<rect x="306" y="227.5" width="15" height="15"/>
	</g>
</g>
<g>
	<g>
		<rect x="276" y="227.5" width="15" height="15"/>
	</g>
</g>
<g>
	<g>
		<g>
			<rect x="225.5" y="436" width="15" height="15"/>
			<rect x="225.5" y="391" width="15" height="30"/>
		</g>
	</g>
</g>
<g>
	<g>
		<g>
			<rect x="85.5" y="456" width="15" height="15"/>
			<rect x="85.5" y="411" width="15" height="30"/>
		</g>
	</g>
</g>
<g>
	<g>
		<g>
			
				<rect x="109.991" y="329.894" transform="matrix(0.7071 -0.7071 0.7071 0.7071 -203.7093 182.9893)" width="18.084" height="14.998"/>
			<rect x="89.23" y="352.197" transform="matrix(-0.7071 -0.7071 0.7071 -0.7071 -89.2009 682.4484)" width="15" height="14.999"/>
		</g>
	</g>
</g>
<g>
	<g>
		<g>
			<polygon points="163,282.82 141.697,304.124 152.304,314.73 163,304.033 180.271,321.303 190.878,310.697 			"/>
			
				<rect x="215.197" y="345.624" transform="matrix(0.7071 -0.7071 0.7071 0.7071 -184.4659 260.8791)" width="15" height="14.999"/>
			
				<rect x="193.984" y="324.411" transform="matrix(0.7071 -0.7071 0.7071 0.7071 -175.6791 239.6675)" width="15" height="14.999"/>
		</g>
	</g>
</g>
<g>
	<g>
		<g>
			<path d="M446.001,203.5c-7.589,0-14.979,2.681-20.808,7.548l9.615,11.514c3.135-2.62,7.111-4.062,11.192-4.062
				c9.649,0,17.5,7.851,17.5,17.5v2h15h0.001v-2C478.501,218.08,463.922,203.5,446.001,203.5z"/>
			<rect x="463.5" y="253" width="15" height="15"/>
		</g>
	</g>
</g>
<g>
	<g>
		<rect x="175" y="60.5" width="24" height="15"/>
	</g>
</g>
<g>
	<g>
		<rect x="103" y="100.5" width="28" height="15"/>
	</g>
</g>
<g>
	<g>
		<rect x="145.5" y="433.5" width="15" height="15"/>
	</g>
</g>
<g>
</g>
<g>
</g>
<g>
</g>
<g>
</g>
<g>
</g>
<g>
</g>
<g>
</g>
<g>
</g>
<g>
</g>
<g>
</g>
<g>
</g>
<g>
</g>
<g>
</g>
<g>
</g>
<g>
</g>
</svg>
